<svg xmlns="http://www.w3.org/2000/svg" version="1.1" xmlns:xlink="http://www.w3.org/1999/xlink" xmlns:svgjs="http://svgjs.dev/svgjs" width="1500" height="268" viewBox="0 0 1500 268"><g transform="matrix(1,0,0,1,-0.9090909090909918,-0.20885386673529638)"><svg viewBox="0 0 396 71" data-background-color="#ffffff" preserveAspectRatio="xMidYMid meet" height="268" width="1500" xmlns="http://www.w3.org/2000/svg" xmlns:xlink="http://www.w3.org/1999/xlink"><g id="tight-bounds" transform="matrix(1,0,0,1,0.2400000000000091,0.05533068857539547)"><svg viewBox="0 0 395.52 70.88933862284921" height="70.88933862284921" width="395.52"><g><svg viewBox="0 0 515.1123582495024 92.32396438299807" height="70.88933862284921" width="395.52"><g><rect width="5.113903387253206" height="92.32396438299807" x="101.09127322022519" y="0" fill="#2c3e50" opacity="1" stroke-width="0" stroke="transparent" fill-opacity="1" class="rect-yte-0" data-fill-palette-color="primary" rx="1%" id="yte-0" data-palette-color="#2c3e50"></rect></g><g transform="matrix(1,0,0,1,119.5923582495025,0.2296616029427767)"><svg viewBox="0 0 395.52 91.86464117711252" height="91.86464117711252" width="395.52"><g id="textblocktransform"><svg viewBox="0 0 395.52 91.86464117711252" height="91.86464117711252" width="395.52" id="textblock"><g><svg viewBox="0 0 395.52 56.70708433734941" height="56.70708433734941" width="395.52"><g transform="matrix(1,0,0,1,0,0)"><svg width="395.52" viewBox="2.45 -41.05 290.47 41.65" height="56.70708433734941" data-palette-color="#2c3e50"><path d="M14.6 0.6L14.6 0.6Q10 0.6 7.33-1.07 4.65-2.75 3.55-5.78 2.45-8.8 2.45-12.9L2.45-12.9 2.45-27.5Q2.45-31.7 3.55-34.73 4.65-37.75 7.33-39.4 10-41.05 14.6-41.05L14.6-41.05Q19.1-41.05 21.63-39.58 24.15-38.1 25.2-35.45 26.25-32.8 26.25-29.35L26.25-29.35 26.25-25.85 17.5-25.85 17.5-29.9Q17.5-31.1 17.38-32.2 17.25-33.3 16.65-34.02 16.05-34.75 14.6-34.75L14.6-34.75Q13.2-34.75 12.53-34 11.85-33.25 11.68-32.13 11.5-31 11.5-29.75L11.5-29.75 11.5-10.7Q11.5-9.35 11.73-8.22 11.95-7.1 12.63-6.43 13.3-5.75 14.6-5.75L14.6-5.75Q16-5.75 16.6-6.48 17.2-7.2 17.35-8.35 17.5-9.5 17.5-10.7L17.5-10.7 17.5-14.95 26.25-14.95 26.25-11.45Q26.25-8 25.23-5.28 24.2-2.55 21.68-0.98 19.15 0.6 14.6 0.6ZM40.2 0.5L40.2 0.5Q37.1 0.5 34.82-0.55 32.55-1.6 31.32-3.7 30.1-5.8 30.1-8.95L30.1-8.95 30.1-19.95Q30.1-23.1 31.32-25.2 32.55-27.3 34.82-28.35 37.1-29.4 40.2-29.4L40.2-29.4Q43.3-29.4 45.57-28.35 47.85-27.3 49.1-25.2 50.35-23.1 50.35-19.95L50.35-19.95 50.35-8.95Q50.35-5.8 49.1-3.7 47.85-1.6 45.57-0.55 43.3 0.5 40.2 0.5ZM40.25-4.9L40.25-4.9Q41.05-4.9 41.5-5.33 41.95-5.75 42.12-6.53 42.3-7.3 42.3-8.4L42.3-8.4 42.3-20.5Q42.3-21.6 42.12-22.38 41.95-23.15 41.5-23.58 41.05-24 40.25-24L40.25-24Q39.45-24 39-23.58 38.55-23.15 38.35-22.38 38.15-21.6 38.15-20.5L38.15-20.5 38.15-8.4Q38.15-7.3 38.35-6.53 38.55-5.75 39-5.33 39.45-4.9 40.25-4.9ZM63 0L54.84 0 54.84-28.9 63-28.9 63-26Q64.59-27.6 66.32-28.5 68.05-29.4 69.95-29.4L69.95-29.4Q71.75-29.4 72.92-28.53 74.09-27.65 74.7-26.13 75.3-24.6 75.3-22.65L75.3-22.65 75.3 0 67.2 0 67.2-21.5Q67.2-22.55 66.84-23.1 66.5-23.65 65.55-23.65L65.55-23.65Q65.05-23.65 64.37-23.38 63.7-23.1 63-22.6L63-22.6 63 0ZM89.14 0.3L89.14 0.3Q85.89 0.3 84.12-0.65 82.34-1.6 81.69-3.43 81.04-5.25 81.04-7.85L81.04-7.85 81.04-23.55 78.24-23.55 78.24-28.9 81.04-28.9 81.04-37.7 89.29-37.7 89.29-28.9 93.39-28.9 93.39-23.55 89.29-23.55 89.29-8.65Q89.29-7.4 90.02-6.85 90.74-6.3 91.84-6.3L91.84-6.3Q92.49-6.3 93.04-6.38 93.59-6.45 94.04-6.5L94.04-6.5 94.04-0.1Q93.39 0 91.99 0.15 90.59 0.3 89.14 0.3ZM103.84 0.5L103.84 0.5Q101.64 0.5 100.14-0.55 98.64-1.6 97.89-3.23 97.14-4.85 97.14-6.55L97.14-6.55Q97.14-9.25 98.22-11.1 99.29-12.95 101.04-14.2 102.79-15.45 104.89-16.32 106.99-17.2 109.04-17.9L109.04-17.9 109.04-20.8Q109.04-21.55 108.89-22.13 108.74-22.7 108.39-23.03 108.04-23.35 107.34-23.35L107.34-23.35Q106.64-23.35 106.27-23.05 105.89-22.75 105.74-22.23 105.59-21.7 105.54-21.05L105.54-21.05 105.34-18.95 97.74-19.25Q97.99-24.45 100.52-26.93 103.04-29.4 108.09-29.4L108.09-29.4Q112.49-29.4 114.67-26.98 116.84-24.55 116.84-20.7L116.84-20.7 116.84-7.2Q116.84-5.4 116.92-4.05 116.99-2.7 117.12-1.7 117.24-0.7 117.34 0L117.34 0 110.04 0Q109.89-1.15 109.69-2.5 109.49-3.85 109.39-4.1L109.39-4.1Q108.89-2.3 107.52-0.9 106.14 0.5 103.84 0.5ZM106.74-5L106.74-5Q107.24-5 107.67-5.2 108.09-5.4 108.44-5.75 108.79-6.1 109.04-6.45L109.04-6.45 109.04-14.35Q108.04-13.75 107.19-13.13 106.34-12.5 105.74-11.75 105.14-11 104.82-10.13 104.49-9.25 104.49-8.15L104.49-8.15Q104.49-6.7 105.09-5.85 105.69-5 106.74-5ZM131.09 0.5L131.09 0.5Q127.94 0.5 125.71-0.65 123.49-1.8 122.29-3.95 121.09-6.1 121.09-9.15L121.09-9.15 121.09-19.75Q121.09-22.85 122.29-25 123.49-27.15 125.71-28.28 127.94-29.4 131.09-29.4L131.09-29.4Q134.19-29.4 136.36-28.45 138.54-27.5 139.69-25.58 140.84-23.65 140.84-20.7L140.84-20.7 140.84-17.65 132.99-17.65 132.99-20.95Q132.99-22.1 132.76-22.73 132.54-23.35 132.11-23.6 131.69-23.85 131.09-23.85L131.09-23.85Q130.49-23.85 130.09-23.53 129.69-23.2 129.49-22.48 129.29-21.75 129.29-20.45L129.29-20.45 129.29-8.45Q129.29-6.5 129.76-5.8 130.24-5.1 131.14-5.1L131.14-5.1Q131.79-5.1 132.19-5.38 132.59-5.65 132.79-6.28 132.99-6.9 132.99-7.95L132.99-7.95 132.99-11.8 140.84-11.8 140.84-8.3Q140.84-5.4 139.66-3.43 138.49-1.45 136.31-0.48 134.14 0.5 131.09 0.5ZM154.04 0.3L154.04 0.3Q150.79 0.3 149.01-0.65 147.24-1.6 146.59-3.43 145.94-5.25 145.94-7.85L145.94-7.85 145.94-23.55 143.14-23.55 143.14-28.9 145.94-28.9 145.94-37.7 154.19-37.7 154.19-28.9 158.29-28.9 158.29-23.55 154.19-23.55 154.19-8.65Q154.19-7.4 154.91-6.85 155.64-6.3 156.74-6.3L156.74-6.3Q157.39-6.3 157.94-6.38 158.49-6.45 158.94-6.5L158.94-6.5 158.94-0.1Q158.29 0 156.89 0.15 155.49 0.3 154.04 0.3ZM186.58 0.6L186.58 0.6Q182.38 0.6 179.96-1.15 177.53-2.9 176.51-6.08 175.48-9.25 175.48-13.4L175.48-13.4 175.48-27Q175.48-31.3 176.58-34.45 177.68-37.6 180.36-39.33 183.03-41.05 187.63-41.05L187.63-41.05Q192.13-41.05 194.71-39.55 197.28-38.05 198.38-35.4 199.48-32.75 199.48-29.2L199.48-29.2 199.48-26.6 190.73-26.6 190.73-29.9Q190.73-31.2 190.56-32.3 190.38-33.4 189.76-34.08 189.13-34.75 187.73-34.75L187.73-34.75Q186.28-34.75 185.63-33.98 184.98-33.2 184.81-32.05 184.63-30.9 184.63-29.65L184.63-29.65 184.63-10.9Q184.63-9.55 184.91-8.38 185.18-7.2 185.91-6.48 186.63-5.75 187.98-5.75L187.98-5.75Q189.38-5.75 190.13-6.5 190.88-7.25 191.18-8.45 191.48-9.65 191.48-11L191.48-11 191.48-15.75 187.83-15.75 187.83-21 199.53-21 199.53 0 193.63 0 193.13-3.35Q192.33-1.65 190.78-0.53 189.23 0.6 186.58 0.6ZM209.78 0.5L209.78 0.5Q208.03 0.5 206.8-0.38 205.58-1.25 204.98-2.8 204.38-4.35 204.38-6.25L204.38-6.25 204.38-28.9 212.53-28.9 212.53-7.2Q212.53-6.15 212.9-5.58 213.28-5 214.23-5L214.23-5Q214.78-5 215.38-5.28 215.98-5.55 216.63-5.9L216.63-5.9 216.63-28.9 224.73-28.9 224.73 0 216.63 0 216.63-2.65Q215.08-1.2 213.35-0.35 211.63 0.5 209.78 0.5ZM235.83 0.5L235.83 0.5Q233.63 0.5 232.13-0.55 230.63-1.6 229.88-3.23 229.13-4.85 229.13-6.55L229.13-6.55Q229.13-9.25 230.2-11.1 231.28-12.95 233.03-14.2 234.78-15.45 236.88-16.32 238.98-17.2 241.03-17.9L241.03-17.9 241.03-20.8Q241.03-21.55 240.88-22.13 240.73-22.7 240.38-23.03 240.03-23.35 239.33-23.35L239.33-23.35Q238.63-23.35 238.25-23.05 237.88-22.75 237.73-22.23 237.58-21.7 237.53-21.05L237.53-21.05 237.33-18.95 229.73-19.25Q229.98-24.45 232.5-26.93 235.03-29.4 240.08-29.4L240.08-29.4Q244.48-29.4 246.65-26.98 248.83-24.55 248.83-20.7L248.83-20.7 248.83-7.2Q248.83-5.4 248.9-4.05 248.98-2.7 249.1-1.7 249.23-0.7 249.33 0L249.33 0 242.03 0Q241.88-1.15 241.68-2.5 241.48-3.85 241.38-4.1L241.38-4.1Q240.88-2.3 239.5-0.9 238.13 0.5 235.83 0.5ZM238.73-5L238.73-5Q239.23-5 239.65-5.2 240.08-5.4 240.43-5.75 240.78-6.1 241.03-6.45L241.03-6.45 241.03-14.35Q240.03-13.75 239.18-13.13 238.33-12.5 237.73-11.75 237.13-11 236.8-10.13 236.48-9.25 236.48-8.15L236.48-8.15Q236.48-6.7 237.08-5.85 237.68-5 238.73-5ZM261.92 0L253.77 0 253.77-28.9 261.92-28.9 261.92-24.1Q263.32-26.6 264.72-27.93 266.12-29.25 268.12-29.25L268.12-29.25Q268.52-29.25 268.82-29.23 269.12-29.2 269.37-29.1L269.37-29.1 269.37-21Q268.82-21.25 268.15-21.43 267.47-21.6 266.72-21.6L266.72-21.6Q265.32-21.6 264.12-20.85 262.92-20.1 261.92-18.8L261.92-18.8 261.92 0ZM279.07 0.5L279.07 0.5Q275.87 0.5 274.12-1.75 272.37-4 272.37-8.4L272.37-8.4 272.37-20.35Q272.37-23.05 273.12-25.08 273.87-27.1 275.37-28.25 276.87-29.4 279.07-29.4L279.07-29.4Q280.67-29.4 282.12-28.78 283.57-28.15 284.77-27.1L284.77-27.1 284.77-40.5 292.92-40.5 292.92 0 284.77 0 284.77-2.25Q283.42-0.95 281.97-0.23 280.52 0.5 279.07 0.5ZM282.62-4.7L282.62-4.7Q283.02-4.7 283.6-4.9 284.17-5.1 284.77-5.45L284.77-5.45 284.77-23.7Q284.27-23.95 283.72-24.15 283.17-24.35 282.67-24.35L282.67-24.35Q281.57-24.35 281.07-23.43 280.57-22.5 280.57-21.2L280.57-21.2 280.57-7.9Q280.57-7 280.77-6.28 280.97-5.55 281.42-5.13 281.87-4.7 282.62-4.7Z" opacity="1" transform="matrix(1,0,0,1,0,0)" fill="#2c3e50" class="wordmark-text-0" data-fill-palette-color="primary" id="text-0"></path></svg></g></svg></g><g transform="matrix(1,0,0,1,0,70.0942659793735)"><svg viewBox="0 0 232.209792 21.77037519773901" height="21.77037519773901" width="232.209792"><g transform="matrix(1,0,0,1,0,0)"><svg width="232.209792" viewBox="4.85 -36.55 512.99 48.099999999999994" height="21.77037519773901" data-palette-color="#111111"><path d="M7.15 0L4.85 0 4.85-32.95 7.15-32.95 7.15-14.65 7.25-14.65 23.2-32.95 25.95-32.95 15.45-20.75 27.4 0 24.75 0 13.85-19 7.15-11.35 7.15 0ZM41.6 0.6L41.6 0.6Q39.3 0.6 37.27-0.25 35.25-1.1 33.75-2.73 32.25-4.35 31.37-6.68 30.5-9 30.5-11.95L30.5-11.95Q30.5-14.9 31.37-17.25 32.25-19.6 33.72-21.23 35.2-22.85 37.07-23.73 38.95-24.6 40.95-24.6L40.95-24.6Q45.25-24.6 47.7-21.7 50.15-18.8 50.15-13.5L50.15-13.5Q50.15-13.05 50.15-12.6 50.15-12.15 50.05-11.7L50.05-11.7 32.75-11.7Q32.8-9.45 33.45-7.53 34.1-5.6 35.27-4.23 36.45-2.85 38.1-2.08 39.75-1.3 41.8-1.3L41.8-1.3Q43.75-1.3 45.32-1.88 46.9-2.45 48.25-3.45L48.25-3.45 49.15-1.75Q47.7-0.9 45.97-0.15 44.25 0.6 41.6 0.6ZM32.75-13.5L32.75-13.5 48.05-13.5Q48.05-18.15 46.15-20.43 44.25-22.7 41-22.7L41-22.7Q39.45-22.7 38.05-22.08 36.65-21.45 35.52-20.25 34.4-19.05 33.67-17.35 32.95-15.65 32.75-13.5ZM65.75 0.6L65.75 0.6Q63.45 0.6 61.42-0.25 59.4-1.1 57.9-2.73 56.4-4.35 55.52-6.68 54.65-9 54.65-11.95L54.65-11.95Q54.65-14.9 55.52-17.25 56.4-19.6 57.87-21.23 59.34-22.85 61.22-23.73 63.09-24.6 65.09-24.6L65.09-24.6Q69.4-24.6 71.84-21.7 74.3-18.8 74.3-13.5L74.3-13.5Q74.3-13.05 74.3-12.6 74.3-12.15 74.2-11.7L74.2-11.7 56.9-11.7Q56.95-9.45 57.59-7.53 58.25-5.6 59.42-4.23 60.59-2.85 62.25-2.08 63.9-1.3 65.95-1.3L65.95-1.3Q67.9-1.3 69.47-1.88 71.05-2.45 72.4-3.45L72.4-3.45 73.3-1.75Q71.84-0.9 70.12-0.15 68.4 0.6 65.75 0.6ZM56.9-13.5L56.9-13.5 72.2-13.5Q72.2-18.15 70.3-20.43 68.4-22.7 65.15-22.7L65.15-22.7Q63.59-22.7 62.2-22.08 60.8-21.45 59.67-20.25 58.55-19.05 57.82-17.35 57.09-15.65 56.9-13.5ZM82.99 10.85L80.79 10.85 80.79-24 82.69-24 82.89-21 83.04-21Q84.79-22.4 86.87-23.5 88.94-24.6 91.19-24.6L91.19-24.6Q95.99-24.6 98.39-21.28 100.79-17.95 100.79-12.35L100.79-12.35Q100.79-9.3 99.94-6.9 99.09-4.5 97.62-2.83 96.14-1.15 94.22-0.28 92.29 0.6 90.19 0.6L90.19 0.6Q88.49 0.6 86.69-0.18 84.89-0.95 82.99-2.35L82.99-2.35 82.99 10.85ZM90.09-1.35L90.09-1.35Q91.89-1.35 93.44-2.15 94.99-2.95 96.09-4.4 97.19-5.85 97.82-7.88 98.44-9.9 98.44-12.35L98.44-12.35Q98.44-14.55 98.02-16.45 97.59-18.35 96.69-19.73 95.79-21.1 94.34-21.88 92.89-22.65 90.84-22.65L90.84-22.65Q89.04-22.65 87.12-21.63 85.19-20.6 82.99-18.7L82.99-18.7 82.99-4.45Q85.09-2.75 86.89-2.05 88.69-1.35 90.09-1.35ZM110.19 0L107.99 0 107.99-24 110.19-24 110.19 0ZM109.14-29.8L109.14-29.8Q108.29-29.8 107.72-30.35 107.14-30.9 107.14-31.75L107.14-31.75Q107.14-32.7 107.72-33.23 108.29-33.75 109.14-33.75L109.14-33.75Q109.99-33.75 110.57-33.23 111.14-32.7 111.14-31.75L111.14-31.75Q111.14-30.9 110.57-30.35 109.99-29.8 109.14-29.8ZM121.64 0L119.44 0 119.44-24 121.34-24 121.54-20.3 121.69-20.3Q123.54-22.15 125.49-23.38 127.44-24.6 129.94-24.6L129.94-24.6Q133.69-24.6 135.44-22.35 137.19-20.1 137.19-15.4L137.19-15.4 137.19 0 134.99 0 134.99-15.1Q134.99-18.95 133.71-20.78 132.44-22.6 129.49-22.6L129.49-22.6Q127.34-22.6 125.59-21.48 123.84-20.35 121.64-18.1L121.64-18.1 121.64 0ZM153.89 11.55L153.89 11.55Q149.34 11.55 146.69 9.75 144.04 7.95 144.04 4.9L144.04 4.9Q144.04 3.3 144.99 1.8 145.94 0.3 147.59-0.9L147.59-0.9 147.59-1.1Q146.69-1.65 146.09-2.6 145.49-3.55 145.49-4.95L145.49-4.95Q145.49-6.55 146.39-7.68 147.29-8.8 148.09-9.35L148.09-9.35 148.09-9.55Q146.94-10.55 146.01-12.25 145.09-13.95 145.09-16.15L145.09-16.15Q145.09-18 145.74-19.55 146.39-21.1 147.54-22.23 148.69-23.35 150.24-23.98 151.79-24.6 153.54-24.6L153.54-24.6Q154.54-24.6 155.34-24.43 156.14-24.25 156.69-24L156.69-24 164.84-24 164.84-22.15 159.24-22.15Q160.39-21.15 161.14-19.58 161.89-18 161.89-16.1L161.89-16.1Q161.89-14.25 161.24-12.7 160.59-11.15 159.46-10.03 158.34-8.9 156.81-8.28 155.29-7.65 153.54-7.65L153.54-7.65Q152.54-7.65 151.46-7.9 150.39-8.15 149.54-8.65L149.54-8.65Q148.74-8 148.16-7.2 147.59-6.4 147.59-5.2L147.59-5.2Q147.59-3.9 148.54-2.98 149.49-2.05 152.19-2.05L152.19-2.05 157.34-2.05Q161.39-2.05 163.31-0.73 165.24 0.6 165.24 3.45L165.24 3.45Q165.24 5 164.44 6.48 163.64 7.95 162.16 9.08 160.69 10.2 158.59 10.88 156.49 11.55 153.89 11.55ZM153.54-9.4L153.54-9.4Q154.79-9.4 155.91-9.88 157.04-10.35 157.89-11.25 158.74-12.15 159.24-13.4 159.74-14.65 159.74-16.15L159.74-16.15Q159.74-17.65 159.24-18.9 158.74-20.15 157.91-21 157.09-21.85 155.94-22.33 154.79-22.8 153.54-22.8L153.54-22.8Q152.24-22.8 151.11-22.33 149.99-21.85 149.14-21 148.29-20.15 147.79-18.93 147.29-17.7 147.29-16.15L147.29-16.15Q147.29-14.65 147.79-13.4 148.29-12.15 149.16-11.25 150.04-10.35 151.16-9.88 152.29-9.4 153.54-9.4ZM154.14 9.75L154.14 9.75Q156.14 9.75 157.79 9.22 159.44 8.7 160.59 7.85 161.74 7 162.36 5.93 162.99 4.85 162.99 3.7L162.99 3.7Q162.99 1.7 161.56 0.88 160.14 0.05 157.44 0.05L157.44 0.05 152.29 0.05Q151.89 0.05 151.06-0.03 150.24-0.1 149.29-0.35L149.29-0.35Q147.64 0.8 146.89 2.1 146.14 3.4 146.14 4.7L146.14 4.7Q146.14 6.95 148.21 8.35 150.29 9.75 154.14 9.75ZM179.43 10.95L179.43 10.95Q178.08 10.95 176.98 10.45L176.98 10.45 177.48 8.5Q177.88 8.65 178.38 8.78 178.88 8.9 179.43 8.9L179.43 8.9Q181.68 8.9 183.18 7.1 184.68 5.3 185.58 2.55L185.58 2.55 186.23 0.45 176.38-24 178.78-24 184.58-8.9Q185.13-7.4 185.81-5.6 186.48-3.8 187.18-2.2L187.18-2.2 187.38-2.2Q187.93-3.8 188.51-5.6 189.08-7.4 189.58-8.9L189.58-8.9 194.73-24 196.98-24 187.48 3Q186.98 4.5 186.26 5.95 185.53 7.4 184.56 8.5 183.58 9.6 182.31 10.28 181.03 10.95 179.43 10.95ZM210.93 0.6L210.93 0.6Q208.78 0.6 206.83-0.25 204.88-1.1 203.4-2.7 201.93-4.3 201.05-6.63 200.18-8.95 200.18-11.95L200.18-11.95Q200.18-14.95 201.05-17.32 201.93-19.7 203.4-21.3 204.88-22.9 206.83-23.75 208.78-24.6 210.93-24.6L210.93-24.6Q213.08-24.6 215.05-23.75 217.03-22.9 218.5-21.3 219.98-19.7 220.85-17.32 221.73-14.95 221.73-11.95L221.73-11.95Q221.73-8.95 220.85-6.63 219.98-4.3 218.5-2.7 217.03-1.1 215.05-0.25 213.08 0.6 210.93 0.6ZM210.93-1.35L210.93-1.35Q212.73-1.35 214.3-2.13 215.88-2.9 217-4.3 218.13-5.7 218.78-7.65 219.43-9.6 219.43-11.95L219.43-11.95Q219.43-14.35 218.78-16.3 218.13-18.25 217-19.68 215.88-21.1 214.3-21.88 212.73-22.65 210.93-22.65L210.93-22.65Q209.13-22.65 207.58-21.88 206.03-21.1 204.9-19.68 203.78-18.25 203.13-16.3 202.48-14.35 202.48-11.95L202.48-11.95Q202.48-9.6 203.13-7.65 203.78-5.7 204.9-4.3 206.03-2.9 207.58-2.13 209.13-1.35 210.93-1.35ZM235.83 0.6L235.83 0.6Q232.08 0.6 230.33-1.65 228.58-3.9 228.58-8.6L228.58-8.6 228.58-24 230.78-24 230.78-8.9Q230.78-5.05 232.05-3.23 233.33-1.4 236.23-1.4L236.23-1.4Q238.38-1.4 240.13-2.58 241.88-3.75 243.98-6.3L243.98-6.3 243.98-24 246.18-24 246.18 0 244.33 0 244.08-4 243.98-4Q242.23-1.9 240.28-0.65 238.33 0.6 235.83 0.6ZM257.57 0L255.37 0 255.37-24 257.27-24 257.47-19.55 257.62-19.55Q258.82-21.8 260.55-23.2 262.27-24.6 264.42-24.6L264.42-24.6Q265.12-24.6 265.67-24.5 266.22-24.4 266.82-24.1L266.82-24.1 266.32-22.1Q265.72-22.35 265.27-22.43 264.82-22.5 264.12-22.5L264.12-22.5Q262.52-22.5 260.75-21.13 258.97-19.75 257.57-16.35L257.57-16.35 257.57 0ZM290.12 0.6L290.12 0.6Q287.77 0.6 285.79-0.25 283.82-1.1 282.34-2.7 280.87-4.3 280.04-6.63 279.22-8.95 279.22-11.95L279.22-11.95Q279.22-14.95 280.12-17.32 281.02-19.7 282.52-21.3 284.02-22.9 285.99-23.75 287.97-24.6 290.17-24.6L290.17-24.6Q292.67-24.6 294.32-23.7 295.97-22.8 297.22-21.65L297.22-21.65 295.92-20.1Q294.77-21.2 293.37-21.93 291.97-22.65 290.22-22.65L290.22-22.65Q288.37-22.65 286.79-21.88 285.22-21.1 284.04-19.68 282.87-18.25 282.19-16.3 281.52-14.35 281.52-11.95L281.52-11.95Q281.52-9.6 282.14-7.65 282.77-5.7 283.89-4.3 285.02-2.9 286.64-2.13 288.27-1.35 290.22-1.35L290.22-1.35Q292.12-1.35 293.74-2.15 295.37-2.95 296.62-4.1L296.62-4.1 297.77-2.55Q296.22-1.2 294.32-0.3 292.42 0.6 290.12 0.6ZM311.57 0.6L311.57 0.6Q309.42 0.6 307.47-0.25 305.52-1.1 304.04-2.7 302.57-4.3 301.69-6.63 300.82-8.95 300.82-11.95L300.82-11.95Q300.82-14.95 301.69-17.32 302.57-19.7 304.04-21.3 305.52-22.9 307.47-23.75 309.42-24.6 311.57-24.6L311.57-24.6Q313.72-24.6 315.69-23.75 317.67-22.9 319.14-21.3 320.62-19.7 321.49-17.32 322.37-14.95 322.37-11.95L322.37-11.95Q322.37-8.95 321.49-6.63 320.62-4.3 319.14-2.7 317.67-1.1 315.69-0.25 313.72 0.6 311.57 0.6ZM311.57-1.35L311.57-1.35Q313.37-1.35 314.94-2.13 316.52-2.9 317.64-4.3 318.77-5.7 319.42-7.65 320.07-9.6 320.07-11.95L320.07-11.95Q320.07-14.35 319.42-16.3 318.77-18.25 317.64-19.68 316.52-21.1 314.94-21.88 313.37-22.65 311.57-22.65L311.57-22.65Q309.77-22.65 308.22-21.88 306.67-21.1 305.54-19.68 304.42-18.25 303.77-16.3 303.12-14.35 303.12-11.95L303.12-11.95Q303.12-9.6 303.77-7.65 304.42-5.7 305.54-4.3 306.67-2.9 308.22-2.13 309.77-1.35 311.57-1.35ZM331.76 0L329.56 0 329.56-24 331.46-24 331.66-20.3 331.81-20.3Q333.66-22.15 335.61-23.38 337.56-24.6 340.06-24.6L340.06-24.6Q343.81-24.6 345.56-22.35 347.31-20.1 347.31-15.4L347.31-15.4 347.31 0 345.11 0 345.11-15.1Q345.11-18.95 343.84-20.78 342.56-22.6 339.61-22.6L339.61-22.6Q337.46-22.6 335.71-21.48 333.96-20.35 331.76-18.1L331.76-18.1 331.76 0ZM362.71 0.6L362.71 0.6Q360.96 0.6 359.81 0.08 358.66-0.45 357.96-1.4 357.26-2.35 356.99-3.7 356.71-5.05 356.71-6.65L356.71-6.65 356.71-22.1 352.96-22.1 352.96-23.8 356.76-24 357.06-30.95 358.96-30.95 358.96-24 365.91-24 365.91-22.1 358.96-22.1 358.96-6.45Q358.96-5.3 359.14-4.38 359.31-3.45 359.76-2.78 360.21-2.1 360.99-1.73 361.76-1.35 363.01-1.35L363.01-1.35Q363.71-1.35 364.54-1.58 365.36-1.8 366.01-2.1L366.01-2.1 366.61-0.3Q365.56 0.1 364.51 0.35 363.46 0.6 362.71 0.6ZM375.91 0.6L375.91 0.6Q374.46 0.6 373.21 0.2 371.96-0.2 371.01-1 370.06-1.8 369.51-3.05 368.96-4.3 368.96-6L368.96-6Q368.96-10 372.68-12.08 376.41-14.15 384.46-15.05L384.46-15.05Q384.46-16.4 384.26-17.78 384.06-19.15 383.41-20.23 382.76-21.3 381.66-21.98 380.56-22.65 378.76-22.65L378.76-22.65Q376.36-22.65 374.36-21.7 372.36-20.75 371.11-19.85L371.11-19.85 370.11-21.5Q370.76-21.95 371.68-22.5 372.61-23.05 373.76-23.5 374.91-23.95 376.26-24.28 377.61-24.6 379.06-24.6L379.06-24.6Q381.16-24.6 382.61-23.88 384.06-23.15 384.96-21.9 385.86-20.65 386.26-18.98 386.66-17.3 386.66-15.35L386.66-15.35 386.66 0 384.76 0 384.56-3.1 384.41-3.1Q382.56-1.65 380.43-0.53 378.31 0.6 375.91 0.6ZM376.31-1.3L376.31-1.3Q378.41-1.3 380.31-2.3 382.21-3.3 384.46-5.2L384.46-5.2 384.46-13.35Q380.76-12.9 378.21-12.25 375.66-11.6 374.11-10.7 372.56-9.8 371.88-8.65 371.21-7.5 371.21-6.1L371.21-6.1Q371.21-4.8 371.61-3.9 372.01-3 372.71-2.43 373.41-1.85 374.33-1.58 375.26-1.3 376.31-1.3ZM404.11 0.6L404.11 0.6Q401.76 0.6 399.78-0.25 397.81-1.1 396.33-2.7 394.86-4.3 394.03-6.63 393.21-8.95 393.21-11.95L393.21-11.95Q393.21-14.95 394.11-17.32 395.01-19.7 396.51-21.3 398.01-22.9 399.98-23.75 401.96-24.6 404.16-24.6L404.16-24.6Q406.66-24.6 408.31-23.7 409.96-22.8 411.21-21.65L411.21-21.65 409.91-20.1Q408.76-21.2 407.36-21.93 405.96-22.65 404.21-22.65L404.21-22.65Q402.36-22.65 400.78-21.88 399.21-21.1 398.03-19.68 396.86-18.25 396.18-16.3 395.51-14.35 395.51-11.95L395.51-11.95Q395.51-9.6 396.13-7.65 396.76-5.7 397.88-4.3 399.01-2.9 400.63-2.13 402.26-1.35 404.21-1.35L404.21-1.35Q406.11-1.35 407.73-2.15 409.36-2.95 410.61-4.1L410.61-4.1 411.76-2.55Q410.21-1.2 408.31-0.3 406.41 0.6 404.11 0.6ZM423.7 0.6L423.7 0.6Q421.95 0.6 420.8 0.08 419.65-0.45 418.95-1.4 418.25-2.35 417.98-3.7 417.7-5.05 417.7-6.65L417.7-6.65 417.7-22.1 413.95-22.1 413.95-23.8 417.75-24 418.05-30.95 419.95-30.95 419.95-24 426.9-24 426.9-22.1 419.95-22.1 419.95-6.45Q419.95-5.3 420.13-4.38 420.3-3.45 420.75-2.78 421.2-2.1 421.98-1.73 422.75-1.35 424-1.35L424-1.35Q424.7-1.35 425.53-1.58 426.35-1.8 427-2.1L427-2.1 427.6-0.3Q426.55 0.1 425.5 0.35 424.45 0.6 423.7 0.6ZM448.55 0.6L448.55 0.6Q445.85 0.6 443.6-0.38 441.35-1.35 439.75-2.7L439.75-2.7 441.05-4.35Q442.6-3.05 444.35-2.18 446.1-1.3 448.7-1.3L448.7-1.3Q451.55-1.3 452.97-2.73 454.4-4.15 454.4-6.05L454.4-6.05Q454.4-7.15 453.87-8 453.35-8.85 452.5-9.45 451.65-10.05 450.62-10.5 449.6-10.95 448.55-11.35L448.55-11.35Q447.2-11.85 445.82-12.4 444.45-12.95 443.35-13.73 442.25-14.5 441.57-15.58 440.9-16.65 440.9-18.2L440.9-18.2Q440.9-19.5 441.4-20.68 441.9-21.85 442.9-22.73 443.9-23.6 445.32-24.1 446.75-24.6 448.65-24.6L448.65-24.6Q450.55-24.6 452.37-23.9 454.2-23.2 455.5-22.1L455.5-22.1 454.3-20.55Q453.1-21.45 451.75-22.08 450.4-22.7 448.55-22.7L448.55-22.7Q447.15-22.7 446.15-22.33 445.15-21.95 444.47-21.35 443.8-20.75 443.47-19.95 443.15-19.15 443.15-18.35L443.15-18.35Q443.15-17.3 443.62-16.57 444.1-15.85 444.9-15.3 445.7-14.75 446.72-14.33 447.75-13.9 448.8-13.5L448.8-13.5Q450.2-12.95 451.6-12.4 453-11.85 454.12-11.05 455.25-10.25 455.95-9.08 456.65-7.9 456.65-6.15L456.65-6.15Q456.65-4.8 456.12-3.58 455.6-2.35 454.55-1.43 453.5-0.5 452 0.05 450.5 0.6 448.55 0.6ZM468.25 0.6L468.25 0.6Q466.8 0.6 465.55 0.2 464.3-0.2 463.35-1 462.4-1.8 461.85-3.05 461.3-4.3 461.3-6L461.3-6Q461.3-10 465.02-12.08 468.75-14.15 476.8-15.05L476.8-15.05Q476.8-16.4 476.6-17.78 476.4-19.15 475.75-20.23 475.1-21.3 474-21.98 472.9-22.65 471.1-22.65L471.1-22.65Q468.7-22.65 466.7-21.7 464.7-20.75 463.45-19.85L463.45-19.85 462.45-21.5Q463.1-21.95 464.02-22.5 464.95-23.05 466.1-23.5 467.25-23.95 468.6-24.28 469.95-24.6 471.4-24.6L471.4-24.6Q473.5-24.6 474.95-23.88 476.4-23.15 477.3-21.9 478.2-20.65 478.6-18.98 479-17.3 479-15.35L479-15.35 479 0 477.1 0 476.9-3.1 476.75-3.1Q474.9-1.65 472.77-0.53 470.65 0.6 468.25 0.6ZM468.65-1.3L468.65-1.3Q470.75-1.3 472.65-2.3 474.55-3.3 476.8-5.2L476.8-5.2 476.8-13.35Q473.1-12.9 470.55-12.25 468-11.6 466.45-10.7 464.9-9.8 464.22-8.65 463.55-7.5 463.55-6.1L463.55-6.1Q463.55-4.8 463.95-3.9 464.35-3 465.05-2.43 465.75-1.85 466.67-1.58 467.6-1.3 468.65-1.3ZM490.09 0L487.89 0 487.89-22.1 484.59-22.1 484.59-23.8 487.89-24 487.89-29.35Q487.89-32.95 489.44-34.75 490.99-36.55 493.84-36.55L493.84-36.55Q495.59-36.55 497.34-35.75L497.34-35.75 496.74-33.95Q495.99-34.35 495.27-34.5 494.54-34.65 493.84-34.65L493.84-34.65Q491.94-34.65 491.02-33.25 490.09-31.85 490.09-29.2L490.09-29.2 490.09-24 495.64-24 495.64-22.1 490.09-22.1 490.09 0ZM509.29 0.6L509.29 0.6Q506.99 0.6 504.97-0.25 502.94-1.1 501.44-2.73 499.94-4.35 499.07-6.68 498.19-9 498.19-11.95L498.19-11.95Q498.19-14.9 499.07-17.25 499.94-19.6 501.42-21.23 502.89-22.85 504.77-23.73 506.64-24.6 508.64-24.6L508.64-24.6Q512.94-24.6 515.39-21.7 517.84-18.8 517.84-13.5L517.84-13.5Q517.84-13.05 517.84-12.6 517.84-12.15 517.74-11.7L517.74-11.7 500.44-11.7Q500.49-9.45 501.14-7.53 501.79-5.6 502.97-4.23 504.14-2.85 505.79-2.08 507.44-1.3 509.49-1.3L509.49-1.3Q511.44-1.3 513.02-1.88 514.59-2.45 515.94-3.45L515.94-3.45 516.84-1.75Q515.39-0.9 513.67-0.15 511.94 0.6 509.29 0.6ZM500.44-13.5L500.44-13.5 515.74-13.5Q515.74-18.15 513.84-20.43 511.94-22.7 508.69-22.7L508.69-22.7Q507.14-22.7 505.74-22.08 504.34-21.45 503.22-20.25 502.09-19.05 501.37-17.35 500.64-15.65 500.44-13.5Z" opacity="1" transform="matrix(1,0,0,1,0,0)" fill="#111111" class="slogan-text-1" data-fill-palette-color="secondary" id="text-1"></path></svg></g></svg></g></svg></g></svg></g><g transform="matrix(1,0,0,1,0,0.2296616029427767)"><svg viewBox="0 0 87.70409157820109 91.86464117711252" height="91.86464117711252" width="87.70409157820109"><g><svg version="1.0" xmlns="http://www.w3.org/2000/svg" xmlns:xlink="http://www.w3.org/1999/xlink" x="0" y="0" viewBox="0 0 95.471 100" enable-background="new 0 0 95.471 100" xml:space="preserve" id="icon-0" width="87.70409157820109" height="91.86464117711252" class="icon-icon-0" data-fill-palette-color="accent"><path d="M47.735 0C47.652 2.825 45.997 13.412 27.936 30.934 10.554 47.797 2.439 49.824 0 50 2.439 50.178 10.554 52.204 27.936 69.066 45.997 86.589 47.652 97.177 47.735 100 47.818 97.177 49.474 86.589 67.533 69.066 84.917 52.204 93.031 50.178 95.471 50 93.032 49.824 84.917 47.797 67.533 30.934 49.475 13.412 47.819 2.825 47.735 0" fill="#2c3e50" data-fill-palette-color="accent"></path></svg></g></svg></g></svg></g><defs></defs></svg><rect width="395.52" height="70.88933862284921" fill="none" stroke="none" visibility="hidden"></rect></g></svg></g></svg>